<svg width="186" height="55" viewBox="0 0 186 55" fill="none" xmlns="http://www.w3.org/2000/svg">
<path d="M181.222 41.3484C176.561 40.8331 171.878 40.8553 167.213 40.7788C164.929 40.7369 164.836 40.5545 165.379 38.4045C165.879 36.4518 166.53 34.5312 166.773 32.5218C167.123 29.6174 166.252 26.9941 164.771 24.7011C165.069 23.7149 165.857 23.5053 166.365 23.0098C167.633 21.777 167.365 20.2977 165.727 19.5778C164.496 19.0427 163.293 19.1907 162.16 19.8588C160.211 21.0127 158.385 22.3244 156.854 24.0009C153.244 27.9704 149.784 32.0706 146.545 36.3286C144.763 38.6708 142.692 39.6891 139.758 38.8459C138.642 38.5253 137.454 38.4538 136.313 38.2073C134.024 37.7142 131.617 37.6575 129.221 36.5603C133.806 33.0248 138.154 29.679 143.858 28.6435C145.949 28.2663 146.474 26.6341 145.324 24.8713C144.028 22.8988 142.267 22.4649 140.028 23.7618C137.522 25.2411 135.113 26.8732 132.813 28.6484C131.097 29.9478 129.356 31.2151 127.31 32.7289C127.31 29.8689 128.03 27.5217 128.38 25.14C129.003 20.9486 129.834 16.7794 130.584 12.6028C130.729 11.799 130.834 11.0076 129.994 10.4775C129.198 9.98439 128.58 10.549 127.993 10.8942C126.472 11.7719 125.181 12.9381 123.91 14.1388C122.216 15.7389 121.138 17.4599 121.939 19.8761C122.091 20.3371 122.001 20.8623 122.026 21.3751C122.807 24.2697 122.694 27.2456 122.251 30.1154C121.476 35.15 121.001 40.2241 120.35 45.2587C120.222 46.1149 120.374 46.9891 120.785 47.7538C123.537 47.9708 125.301 46.5876 125.563 44.0136C125.814 41.6442 126.419 41.2202 128.816 41.5308C132 41.945 135.2 42.2705 138.387 42.6477C139.01 42.7217 139.735 42.5417 140.18 43.1975C138.387 46.3805 138.404 50.101 140.22 51.9354C140.873 51.8367 141.164 51.3214 141.529 50.8703C143.307 48.6759 145.141 46.5285 146.867 44.2947C147.468 43.5205 148.045 43.1926 149.059 43.2641C151.31 43.4219 153.589 43.4096 155.856 43.5106C156.696 43.5501 157.607 43.2789 158.357 43.9446C158.56 44.7981 158.532 45.6892 158.275 46.5285C157.774 48.2913 158.475 49.6252 159.608 50.8456C160.146 51.4225 160.719 52.1622 161.609 51.9477C162.5 51.7332 162.67 50.8357 162.845 50.0665C163.179 48.5872 163.491 47.1079 163.783 45.6285C164.033 44.3958 164.634 43.7473 166.035 43.878C167.853 44.0481 169.684 44.0728 171.511 44.1541C175.598 44.3341 179.686 44.6744 183.784 44.3859C184.597 44.3292 185.61 44.5363 185.995 43.4416C184.987 42.2582 183.433 41.5925 181.222 41.3484ZM161.287 30.4162C160.786 32.8694 160.246 35.3226 159.773 37.7857C159.273 40.4633 159.288 40.4707 156.436 40.3844C154.64 40.3277 152.834 40.3474 150.697 39.7187L161.264 27.8743C161.697 28.9394 161.442 29.6741 161.287 30.4162Z" fill="#1B9874"/>
<path d="M96.6123 38.5278C97.678 39.0209 97.8356 40.0071 98.0057 40.9933C97.7105 43.4416 95.4766 43.7769 93.808 44.7286C89.5302 45.986 85.1924 46.9032 80.6995 46.8909C80.0428 46.9095 79.3855 46.8799 78.7333 46.8021C75.6713 46.3263 74.408 44.3119 75.281 41.341C76.4168 37.4627 78.1329 33.8112 79.839 30.1598C81.5451 26.5083 83.3037 22.8668 85.0699 19.2449C85.3776 18.6088 85.5927 17.8962 86.2581 17.4993C88.9949 18.5003 89.7754 20.1103 88.5471 22.6621C86.3907 27.1346 84.1693 31.5725 82.203 36.1214C81.5826 37.5613 80.9672 39.011 80.647 40.727C83.8015 41.2941 86.7134 40.8898 89.6253 40.2191C91.9593 39.6792 94.1732 38.6535 96.6123 38.5278Z" fill="#1B9874"/>
<path d="M104.998 2.07744C104.904 1.72478 104.679 1.41974 104.367 1.22255C104.056 1.02535 103.681 0.950344 103.317 1.01233C102.411 1.10355 102.166 1.75199 102.188 2.56068C102.233 4.28655 102.048 6.04201 102.381 7.70377C102.801 9.80194 102.849 12.1195 104.838 14.0279C105.446 10.2074 105.544 6.32493 105.13 2.47932C105.101 2.34102 105.057 2.20628 104.998 2.07744Z" fill="#EE9D29"/>
<path d="M121.623 11.8804C121.373 10.7339 120.543 10.2704 119.555 10.9361C116.855 12.7482 114.742 15.0215 114.051 18.7715C116.091 17.8969 118.034 16.8162 119.847 15.5466C121.053 14.7207 121.979 13.5397 121.623 11.8804Z" fill="#EE9D29"/>
<path d="M111.975 3.73674C111.206 4.30386 110.64 5.09741 110.359 6.00256C109.698 8.42618 109.198 10.8818 109.396 13.6654C111.439 12.482 114.304 6.41677 113.936 4.49613C113.753 3.5321 112.755 3.12036 111.975 3.73674Z" fill="#EE9D29"/>
<path d="M96.8775 5.35907C96.6523 4.81665 96.0144 4.82158 95.5291 4.99417C95.2869 5.08353 95.0816 5.24977 94.9458 5.4667C94.8099 5.68363 94.7511 5.93893 94.7786 6.19241C94.8343 7.12651 95.1483 8.02776 95.6867 8.79848C97.2202 11.1235 99.2315 13.0564 101.23 15.4554C101.268 14.7651 101.343 14.4273 101.293 14.1092C100.77 10.7388 98.1358 8.3966 96.8775 5.35907Z" fill="#EE9D29"/>
<path d="M91.2263 11.8483C89.928 12.8888 90.2507 13.7147 91.0637 14.5604C92.7198 16.2666 94.8161 17.0629 97.2202 17.3637C95.9343 14.6714 93.1751 13.7049 91.2263 11.8483Z" fill="#EE9D29"/>
<path d="M75.4311 27.4009C75.3586 24.9132 74.9308 22.5438 73.62 20.3347C73.8026 20.1152 73.9752 19.8859 74.1753 19.6788C74.9483 18.88 75.4061 18.0467 74.528 17.0309C73.6925 16.0644 72.6718 15.909 71.5836 16.486C70.8827 16.8716 70.2253 17.3295 69.6224 17.8519C67.426 19.6986 65.8324 22.0433 64.3365 24.4299C60.5165 30.5469 56.9742 36.8315 52.5789 42.7833C52.794 38.5648 50.8278 35.8256 47.2379 33.9986C44.236 32.4651 41.0439 31.4394 37.7969 30.5888C30.6597 28.7199 23.34 27.7091 16.1304 26.1804C14.3467 25.8032 12.5531 25.4408 10.8144 24.9058C9.42605 24.4792 9.26845 23.7396 10.2291 22.6868C11.0722 21.7866 12.0299 20.9976 13.0784 20.3396C21.4763 14.8711 30.7548 12.5461 40.7362 12.8345C43.5322 12.8953 46.2702 13.6328 48.7089 14.982C50.5025 15.9855 50.7327 17.4081 49.0841 18.562C44.4461 21.8066 39.4629 24.0305 33.5591 22.4501C32.3358 22.1222 31.773 22.5709 31.6129 23.7494C31.3002 26.0695 33.1814 28.5252 35.703 28.7643C40.1008 29.1859 44.3186 28.4956 48.131 26.1656C50.5651 24.6863 52.051 22.5734 52.1486 19.632C52.3988 12.1664 45.8946 6.21706 38.2471 6.89508C33.6603 7.28384 29.1241 8.12215 24.7059 9.39759C18.9022 11.0939 13.5087 13.5742 9.12836 17.8346C6.5592 20.3223 6.30904 22.815 8.2553 25.786C10.4667 29.1489 13.6087 31.2496 17.5113 32.2358C19.4875 32.7289 21.5138 33.0938 23.5151 33.4883C30.3871 34.8443 37.274 36.1658 43.8733 38.5574C45.3253 39.0521 46.7073 39.7273 47.9859 40.5668C48.5388 40.9416 49.1192 41.3582 49.0891 42.0683C49.0566 42.877 48.2886 42.9805 47.6732 43.195C46.7102 43.5372 45.7119 43.7737 44.6963 43.9002C36.9413 44.8371 29.1863 45.8554 21.4113 46.7306C16.9859 47.2237 12.5656 47.9634 8.08269 47.6971C6.38159 47.5935 4.62796 47.6231 2.91685 46.595C5.05073 44.5905 7.72495 45.2168 10.0314 44.6004C10.1015 43.1901 9.0308 43.1827 8.24779 43.1433C5.72617 43.0101 3.33462 43.6906 1.00812 44.5807C0.257638 44.8716 -0.0550638 45.4781 0.00747654 46.3065C0.425246 51.4447 3.77491 54.5488 9.00578 54.8471C17.076 55.3057 25.0761 54.7041 33.0213 53.3185C38.052 52.4408 43.0277 51.2918 47.7583 49.28C49.7771 48.422 51.3806 47.1374 52.1861 45.0393C52.3137 44.7015 52.1286 44.0974 52.8366 44.1689C53.3594 45.6063 53.0017 47.3347 54.4826 48.7228C57.1768 45.8332 58.5127 42.1669 60.7942 39.2724C63.9687 41.2448 66.9732 38.587 69.9451 39.2083C70.3879 40.1427 70.1452 41.018 70.1452 41.8612C70.1411 43.0257 70.5409 44.1566 71.2784 45.0664C71.7162 45.6261 72.194 46.3361 73.0296 46.1389C73.8651 45.9416 73.9827 45.1379 74.0527 44.413C74.1503 43.4095 74.1878 42.3987 74.3204 41.4026C74.9333 36.7502 75.5662 32.1076 75.4311 27.4009ZM70.5305 31.326C70.5232 31.6158 70.4174 31.8949 70.2301 32.1184C70.0428 32.3419 69.7847 32.497 69.4973 32.5588C67.9688 32.9237 66.4678 33.508 64.6267 33.3724C65.8324 30.7343 67.8312 28.7347 68.9569 26.2421C69.6524 25.9684 69.7074 25.0685 70.5605 24.6173C70.8507 26.9842 70.618 29.1588 70.5305 31.326Z" fill="#1B9874"/>
<path d="M120.523 29.8467C120.07 28.7939 119.695 27.7066 119.284 26.6415C118.001 24.811 116.594 23.0673 115.074 21.422C113.135 19.3164 111.352 18.9762 108.84 20.4358C107.659 21.1162 106.776 21.1187 105.668 20.3026C104.137 19.1783 103.109 19.2967 101.838 20.6848C97.4253 25.5 95.4115 31.04 96.835 37.5441C96.8721 37.7147 96.8712 37.8913 96.8323 38.0615C96.7934 38.2318 96.7175 38.3917 96.6098 38.5303C97.6755 39.0234 97.8331 40.0096 98.0032 40.9958C99.4341 42.1028 100.36 43.6857 101.828 44.7927C104.412 46.738 107.147 46.9402 110.063 45.8455C113.708 44.4976 116.778 41.9661 118.767 38.6683C119.405 37.6378 120.33 36.7724 120.658 35.5519C121.171 33.6313 121.328 31.7402 120.523 29.8467ZM116.82 29.0331C116.57 33.7891 113.898 37.0904 109.968 39.4277C108.155 40.5122 106.168 41.2866 104.092 41.7182C103.194 41.9006 102.356 41.9648 102.091 40.732C100.938 35.4484 101.47 30.4483 104.54 25.8501C104.688 25.6282 104.96 25.4876 105.335 25.172C105.728 25.7194 105.991 26.0596 106.226 26.4048C106.939 27.4872 107.802 27.5192 108.818 26.8215C110.146 25.9117 111.512 25.1548 113.241 25.214C115.772 25.3076 116.958 26.4886 116.825 29.038L116.82 29.0331Z" fill="#EE9D29"/>
<path d="M115.825 45.2636C115.571 45.4083 115.337 45.583 115.127 45.7839C110.786 49.8964 102.489 48.9077 99.0564 45.4116C98.6494 44.9981 98.1512 44.6825 97.6004 44.4895C96.6398 44.169 95.6592 44.2429 95.0738 45.1971C94.5435 46.06 94.9087 46.7972 95.5541 47.5245C97.5554 49.7756 100.042 51.102 102.994 51.7751C106.419 52.5567 109.788 52.3841 113.173 51.6543C113.551 51.1489 114.174 51.1094 114.694 50.8653C116.168 50.2237 117.438 49.2015 118.371 47.9067C118.924 47.1054 119.239 46.1932 118.419 45.3401C117.598 44.487 116.71 44.773 115.825 45.2636Z" fill="#EE9D29"/>
</svg>
