<svg xmlns="http://www.w3.org/2000/svg" viewBox="0 0 186 54.01"><title>Asset 1</title><g id="Layer_2" data-name="Layer 2"><g id="Layer_1-2" data-name="Layer 1"><path d="M181.22,40.36c-4.66-.52-9.34-.5-14-.57-2.28,0-2.37-.23-1.83-2.38a45.66,45.66,0,0,0,1.39-5.88,11.65,11.65,0,0,0-2-7.82c.3-1,1.09-1.2,1.6-1.69a1.93,1.93,0,0,0-.64-3.43,3.75,3.75,0,0,0-3.57.28A22.68,22.68,0,0,0,156.85,23c-3.61,4-7.07,8.07-10.3,12.33-1.79,2.34-3.86,3.36-6.79,2.51-1.12-.32-2.31-.39-3.45-.63-2.29-.5-4.69-.55-7.09-1.65,4.59-3.54,8.93-6.88,14.64-7.92,2.09-.37,2.61-2,1.46-3.77-1.29-2-3-2.41-5.29-1.11a69.29,69.29,0,0,0-7.22,4.89c-1.71,1.3-3.45,2.56-5.5,4.08,0-2.86.72-5.21,1.07-7.59.62-4.19,1.45-8.36,2.2-12.54.15-.8.25-1.59-.59-2.12s-1.41.07-2,.41a22.41,22.41,0,0,0-4.08,3.25c-1.69,1.6-2.77,3.32-2,5.73a6.18,6.18,0,0,1,.09,1.5,21.13,21.13,0,0,1,.22,8.74c-.77,5-1.25,10.11-1.9,15.15a3.93,3.93,0,0,0,.44,2.49c2.75.22,4.51-1.16,4.77-3.74.25-2.37.86-2.79,3.26-2.48,3.18.41,6.38.74,9.57,1.12.62.07,1.35-.11,1.79.55-1.79,3.18-1.78,6.9,0,8.73.65-.09.94-.61,1.31-1.06,1.78-2.2,3.61-4.34,5.34-6.58a2.26,2.26,0,0,1,2.19-1c2.25.16,4.53.15,6.8.25.84,0,1.75-.23,2.5.43a5.05,5.05,0,0,1-.08,2.59,4.25,4.25,0,0,0,1.33,4.31c.54.58,1.11,1.32,2,1.11s1.06-1.12,1.24-1.88q.5-2.22.93-4.44A1.85,1.85,0,0,1,166,42.89c1.81.17,3.64.19,5.47.27a106.92,106.92,0,0,0,12.27.23c.82,0,1.83.16,2.22-.94A6.94,6.94,0,0,0,181.22,40.36ZM161.29,29.43c-.5,2.45-1,4.9-1.52,7.36-.5,2.68-.48,2.69-3.33,2.6a20.71,20.71,0,0,1-5.74-.66l10.56-11.85A3.78,3.78,0,0,1,161.29,29.43Z" fill="#eee"/><path d="M96.61,37.54C97.68,38,97.84,39,98,40c-.3,2.45-2.53,2.79-4.2,3.74A46.31,46.31,0,0,1,80.7,45.9a13,13,0,0,1-2-.09c-3.06-.47-4.32-2.49-3.45-5.46a79.18,79.18,0,0,1,4.56-11.18q2.56-5.48,5.23-10.92a3.55,3.55,0,0,1,1.19-1.74c2.74,1,3.52,2.61,2.29,5.16-2.16,4.47-4.38,8.91-6.35,13.46a21.16,21.16,0,0,0-1.55,4.61,22,22,0,0,0,9-.51C92,38.69,94.17,37.66,96.61,37.54Z" fill="#eee"/><path d="M105,1.09A1.48,1.48,0,0,0,103.32,0c-.91.09-1.15.74-1.13,1.55a30.21,30.21,0,0,0,.19,5.14c.42,2.1.47,4.42,2.46,6.33a43.81,43.81,0,0,0,.29-11.55A1.87,1.87,0,0,0,105,1.09Z" fill="#eee"/><path d="M121.62,10.89c-.25-1.15-1.08-1.61-2.06-1a11.62,11.62,0,0,0-5.51,7.84,32.22,32.22,0,0,0,5.8-3.22A3.46,3.46,0,0,0,121.62,10.89Z" fill="#eee"/><path d="M112,2.75A4.43,4.43,0,0,0,110.36,5a22.31,22.31,0,0,0-1,7.66c2-1.18,4.9-7.24,4.54-9.16A1.19,1.19,0,0,0,112,2.75Z" fill="#eee"/><path d="M96.88,4.37c-.23-.54-.87-.54-1.35-.37a1.14,1.14,0,0,0-.58.48,1.08,1.08,0,0,0-.17.72,5,5,0,0,0,.91,2.61,78.93,78.93,0,0,0,5.54,6.65,7.83,7.83,0,0,0,.06-1.34C100.77,9.75,98.14,7.41,96.88,4.37Z" fill="#eee"/><path d="M91.23,10.86c-1.3,1-1,1.86-.17,2.71a9.9,9.9,0,0,0,6.16,2.8C95.93,13.68,93.18,12.71,91.23,10.86Z" fill="#eee"/><path d="M75.43,26.41a14.21,14.21,0,0,0-1.81-7.07c.18-.22.36-.45.56-.65.77-.8,1.23-1.63.35-2.65a2.22,2.22,0,0,0-3-.55,12.09,12.09,0,0,0-2,1.37,27,27,0,0,0-5.28,6.58C60.52,29.56,57,35.84,52.58,41.79c.21-4.22-1.75-7-5.34-8.78A46.11,46.11,0,0,0,37.8,29.6c-7.14-1.87-14.46-2.88-21.67-4.41-1.78-.38-3.58-.74-5.32-1.28-1.38-.42-1.54-1.16-.58-2.21a14.33,14.33,0,0,1,2.85-2.35,47,47,0,0,1,27.66-7.51,17.24,17.24,0,0,1,8,2.15c1.79,1,2,2.43.37,3.58-4.63,3.25-9.62,5.47-15.52,3.89-1.22-.33-1.79.12-2,1.3a4.63,4.63,0,0,0,4.09,5,19.64,19.64,0,0,0,12.43-2.6,7.61,7.61,0,0,0,4-6.53A12.59,12.59,0,0,0,38.25,5.9,69.79,69.79,0,0,0,24.71,8.41c-5.81,1.69-11.2,4.17-15.58,8.43-2.57,2.49-2.82,5-.87,8a15,15,0,0,0,9.25,6.45c2,.5,4,.86,6,1.26,6.87,1.35,13.75,2.67,20.35,5.07a17.88,17.88,0,0,1,4.12,2c.55.37,1.13.79,1.1,1.5s-.8.91-1.42,1.12a13.82,13.82,0,0,1-3,.71c-7.76.94-15.51,2-23.29,2.83-4.42.49-8.84,1.23-13.33,1-1.7-.11-3.45-.08-5.16-1.11,2.13-2,4.81-1.37,7.11-2,.07-1.41-1-1.42-1.78-1.46A17.67,17.67,0,0,0,1,43.59a1.55,1.55,0,0,0-1,1.73c.42,5.13,3.77,8.24,9,8.54a105.51,105.51,0,0,0,24-1.53,66.82,66.82,0,0,0,14.74-4,7.56,7.56,0,0,0,4.43-4.24c.12-.34-.06-.94.65-.87.52,1.44.16,3.16,1.64,4.55,2.7-2.89,4-6.55,6.31-9.45,3.18,2,6.18-.68,9.16-.06a5.52,5.52,0,0,1,.2,2.65,5,5,0,0,0,1.13,3.21c.44.55.91,1.26,1.75,1.07s1-1,1-1.73c.1-1,.14-2,.27-3A87.52,87.52,0,0,0,75.43,26.41Zm-4.9,3.92a1.3,1.3,0,0,1-1,1.24,15,15,0,0,1-4.87.81c1.2-2.64,3.2-4.64,4.33-7.13.69-.27.75-1.17,1.6-1.62A39.34,39.34,0,0,1,70.53,30.33Z" fill="#eee"/><path d="M120.52,28.86c-.45-1.06-.82-2.14-1.24-3.21a50.06,50.06,0,0,0-4.21-5.22c-1.93-2.1-3.72-2.44-6.23-1a2.5,2.5,0,0,1-3.17-.13c-1.53-1.12-2.56-1-3.83.38-4.41,4.82-6.43,10.36-5,16.86a1.3,1.3,0,0,1,0,.52,1.19,1.19,0,0,1-.22.47C97.68,38,97.83,39,98,40c1.43,1.11,2.36,2.69,3.83,3.8a8.06,8.06,0,0,0,8.23,1.05,17,17,0,0,0,8.71-7.17,12.27,12.27,0,0,0,1.89-3.12A8.45,8.45,0,0,0,120.52,28.86Zm-3.7-.82c-.25,4.76-2.92,8.06-6.85,10.4a19,19,0,0,1-5.88,2.29c-.9.18-1.73.24-2-1-1.15-5.28-.62-10.28,2.45-14.88a4.92,4.92,0,0,1,.8-.68c.39.55.65.89.89,1.23.71,1.09,1.57,1.12,2.59.42a7.23,7.23,0,0,1,4.42-1.61c2.53.1,3.72,1.28,3.59,3.83Z" fill="#eee"/><path d="M115.83,44.27a3.64,3.64,0,0,0-.7.52c-4.34,4.12-12.64,3.13-16.07-.37a3.86,3.86,0,0,0-1.46-.92,2,2,0,0,0-2.53.71c-.53.86-.16,1.6.48,2.32A13.66,13.66,0,0,0,103,50.78a23,23,0,0,0,10.18-.12c.38-.5,1-.54,1.52-.79a8.87,8.87,0,0,0,3.68-2.95c.55-.81.87-1.72,0-2.57S116.71,43.78,115.83,44.27Z" fill="#eee"/></g></g></svg>